<svg width="113" height="38" viewBox="0 0 113 38" fill="none" xmlns="http://www.w3.org/2000/svg">
<path fill-rule="evenodd" clip-rule="evenodd" d="M16.5748 23.3599C16.1623 23.3599 15.7986 23.4283 15.4907 23.5639C15.2267 23.6817 14.9421 23.8481 14.6451 24.0589C14.3488 24.2692 14.1866 24.3636 14.1027 24.4047C13.5871 24.6615 12.7512 24.7923 11.6176 24.7923C10.0949 24.7923 8.88366 24.2726 7.91299 23.2037C6.92582 22.1192 6.44599 20.7806 6.44599 19.1133C6.44599 17.3714 6.91895 16.0095 7.89168 14.9489C8.85066 13.904 10.1561 13.3967 11.883 13.3967C12.1401 13.3967 12.4996 13.4439 12.9506 13.535C13.4936 13.6459 13.7755 13.7527 13.8896 13.8088C14.0876 13.9191 14.2959 14.0595 14.5076 14.2252C14.786 14.4443 15.0782 14.623 15.3752 14.7558C15.71 14.9064 16.1155 14.9804 16.6133 14.9804C17.3289 14.9804 17.9414 14.6839 18.3869 14.1231C18.8007 13.598 19.0104 12.9817 19.0104 12.2902C19.0104 10.9399 18.2349 9.86082 16.7047 9.08367C15.3099 8.37637 13.471 8.01758 11.2388 8.01758C9.21913 8.01758 7.38091 8.49687 5.77642 9.44177C4.16987 10.3894 2.90154 11.7191 2.00718 13.3953C1.11763 15.0605 0.666664 16.9838 0.666664 19.1133C0.666664 21.1626 1.09632 23.0511 1.94393 24.7245C2.79911 26.4164 4.02826 27.7619 5.597 28.7225C7.16505 29.6838 8.99915 30.1713 11.0498 30.1713C12.4095 30.1713 13.7122 30.0056 14.9215 29.679C16.1513 29.3456 17.1632 28.8861 17.9311 28.3137C18.7979 27.666 19.2379 26.9292 19.2379 26.1247C19.2379 25.3428 18.9994 24.6841 18.5285 24.1651C18.0418 23.631 17.3846 23.3599 16.5748 23.3599" fill="white"/>
<path fill-rule="evenodd" clip-rule="evenodd" d="M35.3602 19.1131C35.3602 20.7851 34.9106 22.1271 33.9852 23.2151C33.0826 24.2764 31.9455 24.792 30.5079 24.792C29.0725 24.792 27.9423 24.2771 27.0526 23.2179C26.1383 22.1299 25.6935 20.7872 25.6935 19.1131C25.6935 17.4396 26.1445 16.0908 27.0705 14.9904C27.9732 13.9175 29.0972 13.3964 30.5079 13.3964C31.9434 13.3964 33.0805 13.9182 33.9832 14.9904C34.9099 16.0914 35.3602 17.4403 35.3602 19.1131V19.1131ZM40.3095 8.8383C39.7616 8.29327 39.0673 8.01733 38.2451 8.01733C37.4188 8.01733 36.7218 8.30217 36.1746 8.86363C35.8941 9.15053 35.6858 9.4744 35.549 9.8325C34.9488 9.40524 34.2717 9.03413 33.5252 8.72464C32.3943 8.25561 31.1672 8.01733 29.881 8.01733C28.0792 8.01733 26.4074 8.50074 24.9115 9.45317C23.4232 10.4015 22.2346 11.738 21.3808 13.4265C20.5339 15.102 20.1042 17.0151 20.1042 19.113C20.1042 21.2137 20.5408 23.122 21.4021 24.7859C22.2697 26.4607 23.4699 27.7904 24.9706 28.7373C26.4768 29.6884 28.1803 30.1711 30.0323 30.1711C31.3054 30.1711 32.5359 29.8904 33.6881 29.3378C34.4243 28.9838 35.0698 28.5771 35.6184 28.1218C35.6267 28.5709 36.3712 30.169 38.2451 30.169C39.0707 30.169 39.7678 29.8842 40.3164 29.3227C40.8595 28.7661 41.1344 28.0697 41.1344 27.2536V10.9335C41.1344 10.0893 40.8574 9.3847 40.3102 8.83899L40.3095 8.8383Z" fill="white"/>
<path fill-rule="evenodd" clip-rule="evenodd" d="M56.8008 18.0933L62.0487 13.2825C62.7912 12.6341 63.1686 11.9076 63.1686 11.1216C63.1686 10.4848 62.8881 9.8665 62.3368 9.2845C61.7751 8.6936 61.1207 8.39438 60.3927 8.39438C59.5939 8.39438 58.8865 8.69565 58.2967 9.28381L51.2463 16.0768V3.58293C51.2463 2.76675 50.972 2.07109 50.4275 1.51305C49.8796 0.951587 49.1826 0.666748 48.357 0.666748C47.5313 0.666748 46.8343 0.951587 46.2864 1.51305C45.7426 2.0704 45.4676 2.76607 45.4676 3.58293V27.2533C45.4676 28.0702 45.7433 28.7665 46.2857 29.3218C46.8329 29.8847 47.53 30.1695 48.357 30.1695C49.1833 30.1695 49.8803 29.8847 50.4282 29.3225C50.972 28.7659 51.2463 28.0695 51.2463 27.2533V23.1909L52.4521 22.0886L59.4825 29.1972C60.0572 29.8333 60.7722 30.1551 61.6081 30.1551C62.3148 30.1551 62.9802 29.8888 63.5852 29.3629C64.2156 28.8158 64.5352 28.1263 64.5352 27.3149C64.5352 26.5268 64.2362 25.8141 63.6532 25.2013L56.8008 18.0933Z" fill="white"/>
<path fill-rule="evenodd" clip-rule="evenodd" d="M81.1965 19.1131C81.1965 20.7851 80.7469 22.1271 79.8216 23.2151C78.9189 24.2764 77.7818 24.792 76.3443 24.792C74.9088 24.792 73.7786 24.2771 72.889 23.2179C71.9747 22.1299 71.5299 20.7872 71.5299 19.1131C71.5299 17.4396 71.9808 16.0908 72.9069 14.9904C73.8095 13.9175 74.9336 13.3964 76.3443 13.3964C77.7798 13.3964 78.9169 13.9182 79.8195 14.9904C80.7462 16.0914 81.1965 17.4403 81.1965 19.1131V19.1131ZM86.146 8.8383C85.5981 8.29327 84.9038 8.01733 84.0816 8.01733C83.2553 8.01733 82.5582 8.30217 82.011 8.86363C81.7305 9.15053 81.5222 9.4744 81.3854 9.8325C80.7853 9.40524 80.1082 9.03413 79.3616 8.72464C78.2308 8.25561 77.0037 8.01733 75.7175 8.01733C73.9157 8.01733 72.2438 8.50074 70.748 9.45317C69.2597 10.4015 68.0711 11.738 67.2173 13.4265C66.3703 15.102 65.9407 17.0151 65.9407 19.113C65.9407 21.2137 66.3772 23.122 67.2386 24.7859C68.1061 26.4607 69.3064 27.7904 70.8071 28.7373C72.3133 29.6884 74.0168 30.1711 75.8687 30.1711C77.1419 30.1711 78.3724 29.8904 79.5245 29.3378C80.2608 28.9838 80.9063 28.5771 81.4549 28.1218C81.4631 28.5709 82.2076 30.169 84.0816 30.169C84.9072 30.169 85.6043 29.8842 86.1528 29.3227C86.6959 28.7661 86.9709 28.0697 86.9709 27.2536V10.9335C86.9709 10.0893 86.6939 9.3847 86.1467 8.83899L86.146 8.8383Z" fill="white"/>
<path fill-rule="evenodd" clip-rule="evenodd" d="M106.745 19.0757C106.745 20.7484 106.285 22.0973 105.341 23.1983C104.421 24.2706 103.275 24.7923 101.837 24.7923C100.374 24.7923 99.2154 24.2713 98.2962 23.1983C97.3516 22.098 96.8931 20.7491 96.8931 19.0757C96.8931 17.4036 97.351 16.0616 98.2942 14.9736C99.214 13.9123 100.372 13.3967 101.837 13.3967C103.3 13.3967 104.453 13.9116 105.359 14.9709C106.292 16.0595 106.745 17.4029 106.745 19.0757M111.035 13.4028C110.167 11.7287 108.967 10.399 107.467 9.45136C105.958 8.5003 104.256 8.01758 102.405 8.01758C101.123 8.01758 99.8811 8.32638 98.7117 8.93577C98.0078 9.30346 97.3918 9.71292 96.8694 10.1621C96.7326 9.82316 96.593 8.01758 94.1918 8.01758C93.3655 8.01758 92.6684 8.30242 92.1212 8.86388C91.5775 9.42055 91.3025 10.4942 91.3025 11.3103V34.4172C91.3025 35.2628 91.5795 35.9674 92.1274 36.5118C92.6739 37.0575 93.3689 37.3334 94.1918 37.3334C95.0174 37.3334 95.7138 37.0486 96.2637 36.4864C96.8061 35.9291 97.0811 35.2334 97.0811 34.4172V28.3541C97.6159 28.7362 98.2147 29.0792 98.8733 29.3798C100.022 29.905 101.261 30.1713 102.556 30.1713C104.359 30.1713 106.032 29.6879 107.525 28.7355C109.014 27.7886 110.202 26.4506 111.056 24.7621C111.904 23.0867 112.333 21.1736 112.333 19.0756C112.333 16.9763 111.897 15.0673 111.035 13.4028" fill="white"/>
</svg>