<svg width="40" height="40" viewBox="0 0 40 40" fill="none" xmlns="http://www.w3.org/2000/svg">
<path fill-rule="evenodd" clip-rule="evenodd" d="M30.5638 36.985C29.2525 37.8018 27.8414 38.4654 26.354 38.9682C25.1536 39.3669 23.9047 39.6581 22.608 39.8308C21.7534 39.9424 20.8829 40 19.9937 40C19.3492 40 18.7206 39.9653 18.1003 39.9078C13.465 39.4744 9.28993 37.4606 6.11913 34.3991C5.95834 34.2459 5.80101 34.0926 5.652 33.9318C3.89922 32.1288 2.48813 30.0042 1.5109 27.6486C0.541289 25.2937 0 22.7079 0 20.0042C0 8.95292 8.94894 0 19.9937 0C20.1621 0 20.3271 0 20.492 0.00346717C20.5808 0.00762777 20.6646 0.0152555 20.745 0.0152555C21.2974 0.0381388 21.8338 0.0769711 22.371 0.137993C22.4472 0.146314 22.5318 0.160877 22.6045 0.169198C22.6932 0.180293 22.7813 0.18792 22.8617 0.203176C22.8963 0.207337 22.9303 0.214964 22.9608 0.222592C23.0758 0.233687 23.1909 0.253103 23.299 0.272519C23.421 0.291242 23.5402 0.310658 23.6545 0.334235C23.7162 0.34533 23.7814 0.352958 23.8389 0.368213C23.9768 0.39179 24.1036 0.41814 24.2298 0.452812C24.4869 0.506206 24.7406 0.563761 24.9928 0.625477C25.4489 0.748214 25.9015 0.87858 26.3464 1.03183C27.8344 1.52694 29.249 2.19749 30.5554 3.01505L15.6267 8.31218C10.7357 10.0652 7.54547 14.6647 7.54547 19.9958V20.0881C7.54547 22.1406 8.01676 24.0698 8.88379 25.7694C8.96765 25.9531 9.06745 26.1334 9.17488 26.3137C9.23656 26.4247 9.30518 26.5398 9.37448 26.6514C9.38557 26.6743 9.40082 26.6972 9.41607 26.7242C9.42023 26.7319 9.42785 26.7395 9.43201 26.7429C9.56161 26.9586 9.70369 27.1611 9.84508 27.3643C9.90676 27.4565 9.97607 27.5452 10.0412 27.6292C10.4591 28.1777 10.9186 28.688 11.4211 29.1561C11.4939 29.2254 11.5674 29.2941 11.6394 29.3558C12.1461 29.8079 12.6901 30.215 13.2695 30.5714C13.3534 30.6255 13.438 30.6747 13.526 30.7288C13.7907 30.8862 14.0513 31.0242 14.323 31.1587C14.4041 31.1969 14.4845 31.235 14.5649 31.2697C14.6266 31.3043 14.6917 31.3272 14.7493 31.3501C14.9329 31.4347 15.1173 31.511 15.3086 31.5838C15.4084 31.6303 15.5158 31.6684 15.6232 31.7031C15.8034 31.7648 15.9836 31.8293 16.1638 31.8834C16.2137 31.8986 16.2553 31.9104 16.3059 31.9215L30.5638 36.985Z" fill="#FEFEFE" fill-opacity="0.65"/>
<path fill-rule="evenodd" clip-rule="evenodd" d="M40 20.004C40 27.1616 36.2404 33.4448 30.5743 36.9848L16.307 31.922C16.4873 31.9754 16.6669 32.0254 16.8514 32.067C17.0283 32.11 17.201 32.1523 17.3813 32.1821H17.3854C17.5651 32.2251 17.753 32.2514 17.9375 32.2826C17.9951 32.2903 18.0485 32.3014 18.106 32.3055C18.2898 32.336 18.4708 32.3554 18.6588 32.3742C18.8959 32.3977 19.138 32.413 19.387 32.4241C19.5832 32.4317 19.783 32.4359 19.982 32.4359C23.9025 32.4359 26.4464 31.1932 28.4493 29.3633C29.0284 28.8266 29.4348 28.1165 29.4348 27.2192C29.4348 25.6153 28.1844 24.3234 26.5768 24.3234C26.2737 24.3234 25.9935 24.3726 25.7404 24.4496C25.4872 24.53 25.2611 24.6299 25.0732 24.7374C25.008 24.7755 24.9504 24.8102 24.8963 24.8442C24.8429 24.883 24.7965 24.9177 24.7507 24.9523C24.7126 24.9829 24.6703 25.0134 24.628 25.0446C24.5891 25.0786 24.5517 25.1091 24.5087 25.1361C24.3443 25.2588 24.1758 25.374 24.01 25.4814C22.9246 26.1832 21.7394 26.5979 20.2892 26.5979C20.1658 26.5979 20.0472 26.5937 19.9321 26.5861C19.8475 26.5819 19.7712 26.5784 19.6949 26.5667C19.5943 26.5632 19.5104 26.5514 19.4182 26.5403C19.3724 26.5327 19.3294 26.5285 19.2836 26.5209C19.1574 26.498 19.0312 26.4786 18.9119 26.4515H18.8959C18.7663 26.421 18.6393 26.3871 18.5166 26.3482C18.2059 26.2602 17.9028 26.1451 17.615 26.0029C17.5075 25.9495 17.4 25.8961 17.3008 25.8344C17.1926 25.7727 17.0893 25.7117 16.9936 25.6423C16.9478 25.6194 16.9055 25.5889 16.8674 25.5542C16.7793 25.4967 16.6905 25.4357 16.6066 25.3663C16.5026 25.2817 16.3992 25.1937 16.3028 25.1091C16.2189 25.0286 16.1419 24.9523 16.0608 24.8754C16.015 24.8254 15.9693 24.7755 15.927 24.7298C15.8541 24.6493 15.7855 24.5723 15.7237 24.4877C15.5511 24.2804 15.3943 24.062 15.2487 23.8283C15.2251 23.7818 15.2022 23.7402 15.171 23.6979C15.0483 23.4864 14.9373 23.268 14.8416 23.0378C14.4421 22.1287 14.2278 21.0969 14.2278 19.9964V19.9076C14.2278 16.3905 16.6364 13.4025 20.0243 13.4025C21.8088 13.4025 23.0585 13.9815 24.2597 14.9177C24.6585 15.2283 25.3305 15.5889 26.2203 15.5889C27.9153 15.5889 29.2961 14.2499 29.2961 12.5545C29.2961 11.3964 28.6754 10.5948 28.226 10.2342C26.2203 8.53878 23.6806 7.56035 20.0708 7.56035C18.4784 7.56035 16.9853 7.82524 15.6273 8.31203L30.5659 3.01489C31.591 3.65562 32.5543 4.38442 33.4441 5.19366C35.8146 7.33776 37.6635 10.0539 38.7836 13.1182C39.5665 15.2665 40 17.5832 40 20.004" fill="#FEFEFE"/>
<path fill-rule="evenodd" clip-rule="evenodd" d="M15.3354 24.7994C15.3354 25.6768 14.9961 26.4749 14.4303 27.0708C13.8345 27.7208 12.9736 28.1251 12.0146 28.1251C10.9806 28.1251 10.0608 27.652 9.45022 26.9129C9.44601 26.9079 9.44111 26.903 9.4362 26.8932C9.19995 26.6075 9.01768 26.2825 8.8943 25.9274C8.76181 25.5729 8.69241 25.1938 8.69241 24.7994C8.69241 22.9666 10.1793 21.4792 12.0146 21.4792C12.3483 21.4792 12.6785 21.5284 12.9841 21.6267C13.8099 21.873 14.4941 22.4395 14.9077 23.1737C15.1825 23.6517 15.3354 24.2083 15.3354 24.7994" fill="#FEFEFE"/>
</svg>