<svg width="98" height="26" viewBox="0 0 98 26" fill="none" xmlns="http://www.w3.org/2000/svg">
<g clip-path="url(#clip0_8173_2903)">
<path d="M44.5011 8.26538L48.4742 4.47369C48.4878 4.46206 48.5033 4.45625 48.5189 4.45625H51.8304C51.8886 4.45625 51.9158 4.526 51.8751 4.56669L47.1143 9.145C47.091 9.16631 47.0891 9.20312 47.1085 9.22831L51.8886 15.4399C51.9216 15.4826 51.8925 15.5426 51.8382 15.5426L48.6275 15.562C48.6081 15.562 48.5887 15.5523 48.5771 15.5368L45.1801 11.098C45.1568 11.067 45.1142 11.0651 45.0851 11.0903L44.408 11.7238C44.3964 11.7354 44.3886 11.7529 44.3886 11.7703L44.4002 15.4787C44.4002 15.5136 44.3711 15.5426 44.3362 15.5426L41.8938 15.562C41.8588 15.562 41.8297 15.5329 41.8297 15.4981L41.7968 0.0639375C41.7968 0.0290625 41.8259 0 41.8608 0H44.3285C44.3634 0 44.3925 0.0290625 44.3925 0.0639375V8.21887C44.3925 8.27506 44.4604 8.30413 44.5011 8.26538Z" fill="#4A91DC"/>
<path d="M0.5 22.5873V9.58085C1.07812 3.84779 8.33566 1.85411 11.6278 6.64167C15.3623 12.0667 8.55876 18.8905 3.2257 14.8431C3.16362 14.7947 3.07244 14.8392 3.07244 14.9187L3.0705 22.4904C3.0705 22.566 3.0317 22.6047 2.95604 22.6047L0.5 22.5873ZM10.0584 10.009C10.0584 8.09673 8.50444 6.54479 6.58966 6.54479C4.67488 6.54479 3.12094 8.09673 3.12094 10.009C3.12094 11.9214 4.67488 13.4733 6.58966 13.4733C8.50444 13.4733 10.0584 11.9214 10.0584 10.009Z" fill="#4A91DC"/>
<path d="M14.2896 8.1957C16.3324 1.79614 25.9257 2.97995 26.1973 9.83483C26.2012 9.91233 26.1371 9.9782 26.0595 9.9782H23.7296C23.6423 9.9782 23.5957 9.93558 23.5899 9.84839C23.4386 7.24051 20.7362 5.78545 18.4838 6.91889C16.9221 7.70551 16.6098 9.10826 16.604 10.8753C16.6001 12.4136 16.6001 13.9481 16.604 15.4768C16.604 15.5214 16.5671 15.5582 16.5225 15.5582L14.1266 15.5446C14.0645 15.5427 14.0335 15.5117 14.0335 15.4497C14.0296 13.7505 14.0296 12.0533 14.0315 10.3599C14.0335 9.44926 14.1208 8.72851 14.2896 8.1957Z" fill="#4A91DC"/>
<path d="M28.1062 7.97854C30.0268 2.63298 37.8295 2.61748 39.6163 8.08511C39.82 8.70898 39.9247 9.73392 39.9305 11.158C39.9344 12.5859 39.9325 14.0158 39.9267 15.4515C39.9267 15.5115 39.8976 15.5406 39.8374 15.5406L37.4144 15.5658C37.3309 15.5658 37.2999 15.5251 37.3174 15.4457L37.3639 15.2384C37.393 15.1085 37.2514 15.0078 37.1389 15.0775C32.2268 18.1582 26.0983 13.5682 28.1062 7.97854ZM37.3115 9.99548C37.3115 8.07735 35.7557 6.52348 33.8351 6.52348C31.9145 6.52348 30.3586 8.07735 30.3586 9.99548C30.3586 11.9136 31.9145 13.4675 33.8351 13.4675C35.7557 13.4675 37.3115 11.9136 37.3115 9.99548Z" fill="#4A91DC"/>
<path d="M57.3265 15.872C51.5143 14.3723 50.9847 6.28908 56.8105 4.27214C60.9194 2.85002 64.6849 5.91127 64.8557 10.073C64.8576 10.1273 64.8149 10.1718 64.7606 10.1718H55.3982C55.3089 10.1718 55.2391 10.2532 55.2546 10.3404C55.8579 13.8046 60.2753 14.6804 61.9282 11.4758C61.9573 11.4196 62.0039 11.3905 62.0679 11.3886L64.6287 11.3401C64.7102 11.3382 64.7684 11.4157 64.747 11.4932C63.8255 14.7095 60.6556 16.7303 57.3265 15.872ZM61.9166 8.30214C60.6866 5.60321 56.7678 5.44046 55.6542 8.29827C55.629 8.36027 55.6756 8.42808 55.7435 8.42808H61.837C61.901 8.42808 61.9437 8.36027 61.9166 8.30214Z" fill="#4A91DC"/>
<path d="M67.2496 6.97892C70.567 1.70698 77.8944 3.69098 78.6122 9.72823C78.6316 9.89486 78.5579 9.97817 78.3891 9.97817H76.1232C76.0572 9.97817 76.0204 9.94523 76.0107 9.87936C75.5373 6.08379 70.569 5.19448 69.2284 8.81179C69.0596 9.27098 68.9762 9.93167 68.9782 10.7919C68.984 12.3574 68.9859 13.921 68.9801 15.4807C68.9801 15.5233 68.9452 15.5582 68.9006 15.5582L66.5085 15.5446C66.4484 15.5427 66.4174 15.5117 66.4154 15.4516C66.4038 13.3707 66.4057 11.2937 66.4232 9.21867C66.429 8.59286 66.7045 7.84692 67.2496 6.97892Z" fill="#4A91DC"/>
<path d="M94.8325 15.159C94.8325 15.0873 94.7995 15.066 94.7355 15.099C92.8634 16.0386 91.0689 16.2518 89.352 15.7383C85.8289 14.6882 84.3002 10.6834 85.8309 7.4284C88.1434 2.50909 95.5231 2.93727 97.1411 8.15302C97.3157 8.71684 97.403 9.58871 97.401 10.7667C97.3991 12.3186 97.4107 13.8725 97.4321 15.4264C97.4321 15.4981 97.3952 15.5349 97.3234 15.5368L94.9256 15.5756C94.8752 15.5775 94.8325 15.5349 94.8325 15.4845V15.159ZM94.8189 9.99559C94.8189 8.07746 93.2611 6.52165 91.3405 6.52165C89.4199 6.52165 87.8621 8.07746 87.8621 9.99559C87.8621 11.9137 89.4199 13.4695 91.3405 13.4695C93.2611 13.4695 94.8189 11.9137 94.8189 9.99559Z" fill="#4A91DC"/>
<path d="M80.719 17.4375C80.7986 17.4375 80.8645 17.3717 80.8645 17.2922V4.55317C80.8645 4.48924 80.8975 4.4563 80.9615 4.4563H83.3768C83.4447 4.4563 83.4797 4.49117 83.4797 4.55899C83.4894 8.49211 83.4894 12.4214 83.4797 16.3487C83.4777 17.5209 83.4098 18.3036 83.276 18.695C82.1779 21.8841 77.1068 21.1479 76.8992 17.5305C76.8953 17.4802 76.936 17.4375 76.9865 17.4375H80.719Z" fill="#4A91DC"/>
<path d="M72.5458 11.5764C73.4405 11.5764 74.1657 10.8521 74.1657 9.95863C74.1657 9.06514 73.4405 8.34082 72.5458 8.34082C71.6512 8.34082 70.9259 9.06514 70.9259 9.95863C70.9259 10.8521 71.6512 11.5764 72.5458 11.5764Z" fill="#FBA66B"/>
<path d="M91.3347 11.5728C92.2294 11.5728 92.9546 10.8485 92.9546 9.95497C92.9546 9.06148 92.2294 8.33716 91.3347 8.33716C90.4401 8.33716 89.7148 9.06148 89.7148 9.95497C89.7148 10.8485 90.4401 11.5728 91.3347 11.5728Z" fill="#FBA66B"/>
<path d="M80.5095 25.6719H79.5938C74.6351 25.1042 71.504 20.7487 72.8988 15.9301C72.9143 15.872 72.9784 15.8429 73.0346 15.8662L74.9805 16.6761C75.0387 16.7012 75.0619 16.7439 75.0503 16.8059C73.991 22.6765 80.7636 25.7281 84.3856 21.049C84.4224 21.0006 84.467 20.9889 84.5214 21.0122L86.504 21.8337C86.5778 21.8647 86.5933 21.9151 86.5506 21.9829C85.1635 24.1974 83.1498 25.4277 80.5095 25.6719Z" fill="#FBA66B"/>
</g>
<defs>
<clipPath id="clip0_8173_2903">
<rect width="97" height="26" fill="white" transform="translate(0.5)"/>
</clipPath>
</defs>
</svg>